<?xml version="1.0" encoding="utf-8"?>
<svg version="1.1" xmlns:xlink="http://www.w3.org/1999/xlink" width="1030px" height="483px" xmlns="http://www.w3.org/2000/svg">
  <g transform="matrix(1 0 0 1 -90 -576 )">
    <path d="M 90 576  L 1120 576  L 1120 1059  L 90 1059  L 90 576  " fill-rule="nonzero" fill="#cccccc" stroke="none" />
    <path d="M 124 610  L 1086 610  L 1086 1025  L 124 1025  L 124 610  " fill-rule="nonzero" fill="#ffffff" stroke="none" />
    <path d="M 661.825 720.9000000000001  C 641.539 720.9000000000001  625.6 704.9610000000001  625.6 684.6750000000001  C 625.6 664.389  641.539 648.45  661.825 648.45  C 682.1110000000001 648.45  698.0500000000001 664.389  698.0500000000001 684.6750000000001  C 698.0500000000001 704.9610000000001  682.1110000000001 720.9000000000001  661.825 720.9000000000001  " fill-rule="nonzero" fill="#cccccc" stroke="none" />
    <path d="M 136 1013  L 136 797.95  L 370.5 700.2  L 698.8 902.9885436893204  L 886.4000000000001 758.85  L 1074 902.9885436893204  L 1074 1013  L 136 1013  " fill-rule="nonzero" fill="#169bd5" stroke="none" />
  </g>
</svg>