<?xml version="1.0" encoding="utf-8"?>
<svg version="1.1" xmlns:xlink="http://www.w3.org/1999/xlink" width="340px" height="439px" xmlns="http://www.w3.org/2000/svg">
  <g transform="matrix(1 0 0 1 -790 -1258 )">
    <path d="M 790 1258  L 1130 1258  L 1130 1697  L 790 1697  L 790 1258  " fill-rule="nonzero" fill="#cccccc" stroke="none" />
    <path d="M 814 1282  L 1106 1282  L 1106 1673  L 814 1673  L 814 1282  " fill-rule="nonzero" fill="#ffffff" stroke="none" />
    <path d="M 992.3 1374.85  C 978.02 1374.85  966.8 1363.6299999999999  966.8 1349.35  C 966.8 1335.07  978.02 1323.85  992.3 1323.85  C 1006.5799999999999 1323.85  1017.8 1335.07  1017.8 1349.35  C 1017.8 1363.6299999999999  1006.5799999999999 1374.85  992.3 1374.85  " fill-rule="nonzero" fill="#cccccc" stroke="none" />
    <path d="M 823 1665  L 823 1459.3  L 891.75 1365.8  L 988 1440.6  L 1043 1421.9  L 1098 1440.6  L 1098 1665  L 823 1665  " fill-rule="nonzero" fill="#169bd5" stroke="none" />
  </g>
</svg>