<?xml version="1.0" encoding="utf-8"?>
<svg version="1.1" xmlns:xlink="http://www.w3.org/1999/xlink" width="800px" height="448px" xmlns="http://www.w3.org/2000/svg">
  <g transform="matrix(1 0 0 1 -205 -307 )">
    <path d="M 205 307  L 1005 307  L 1005 755  L 205 755  L 205 307  " fill-rule="nonzero" fill="#cccccc" stroke="none" />
    <path d="M 236 338  L 974 338  L 974 724  L 236 724  L 236 338  " fill-rule="nonzero" fill="#ffffff" stroke="none" />
    <path d="M 654.6 441.4  C 635.784 441.4  621 426.616  621 407.79999999999995  C 621 388.984  635.784 374.2  654.6 374.2  C 673.416 374.2  688.2 388.984  688.2 407.79999999999995  C 688.2 426.616  673.416 441.4  654.6 441.4  " fill-rule="nonzero" fill="#cccccc" stroke="none" />
    <path d="M 247 713  L 247 512.8  L 426 421.8  L 676.5999999999999 590.696  L 819.8000000000001 476.4  L 963 590.696  L 963 713  L 247 713  " fill-rule="nonzero" fill="#169bd5" stroke="none" />
  </g>
</svg>